
<svg xmlns="http://www.w3.org/2000/svg" viewBox="0 0 853.6 89.1"><path d="M132.5,67.9a21.4,21.4,0,0,1,1,13.3c-1,3.9-3.3,6.9-6.6,8.2s-6.9.5-10.3-1.6a21.9,21.9,0,0,1-8.2-10.6,22.6,22.6,0,0,1-1.1-13.4c1.1-3.9,3.4-6.8,6.6-8.1s7-.6,10.4,1.6A21.9,21.9,0,0,1,132.5,67.9Z" transform="translate(-0.9 -1.4)" fill="#1d3f30" stroke="#44f1a6"/><path d="M133.4,67a21.6,21.6,0,0,1,1.1,13.1c-1,3.8-3.2,6.7-6.4,7.9s-6.8.6-10.1-1.6A22.2,22.2,0,0,1,110,76a22,22,0,0,1-1-13c1-3.8,3.2-6.8,6.3-8s6.8-.5,10.1,1.6A22.1,22.1,0,0,1,133.4,67Z" transform="translate(-0.9 -1.4)" fill="#1d3f30" stroke="#44f1a6"/><path d="M131.2,68a18.9,18.9,0,0,1,.9,10.6c-.8,3-2.6,5.4-5.1,6.3a8.9,8.9,0,0,1-8.1-1.2,18,18,0,0,1-6.4-8.4,16.9,16.9,0,0,1-.9-10.5,8.9,8.9,0,0,1,5.1-6.4c2.5-1,5.4-.5,8.1,1.3A17.2,17.2,0,0,1,131.2,68Z" transform="translate(-0.9 -1.4)" fill="#182922" stroke="#44f1a6"/><path d="M119.2,72.3,119,63h0l6.1,7-2,3.6h0Zm.6,1.6,3.9,1.3,2-3.5-.7,6.8Z" transform="translate(-0.9 -1.4)" fill="#44f1a6" fill-rule="evenodd"/><path d="M120.7,58.1c-.9-1.3-1.8-5.6-2.5-7.1l6.6-1.4c.2,1.1,2.6,3.9,3.5,6.6s-1.9,4.6-3,4.9S121.8,59.7,120.7,58.1Z" transform="translate(-0.9 -1.4)" fill="#080808"/><path d="M62.5,14.2H10l3,3.5,2.5,1.5h65l15,2.5,13,5,17,7.5,6.5,2.5,11.5,7,2.5,3,1.5-2-2-3.5-.5-1.5,2-1-.5-2.5L142,31.7l-5.5-3.5v-1l3-1-.5-1.5-4.5-1.5-9-1.5-12-1.5L106,18.7l-9.5-3-7.5-1-14.5-1Z" transform="translate(-0.9 -1.4)" fill="#182922"/><path d="M106.5,18.8c4,.9,11.7,1.8,16.4,2.4l9,1.4c9,1.5,10.1,4.4,3.5,4.6,6,3.6,11.8,8.8,11.8,10.4s-2.4,2.1-3.3,1.6" transform="translate(-0.9 -1.4)" fill="none" stroke="#44f1a6" stroke-linecap="round" stroke-linejoin="round"/><path d="M116,22.9c2.3.9,11.8,1.9,14.8,2.7a35.3,35.3,0,0,1,4.9,1.6" transform="translate(-0.9 -1.4)" fill="none" stroke="#44f1a6"/><path d="M6,14.1H9M59.5,43c4,1.6,5.2,3,7.9,3.9a172.6,172.6,0,0,0,18,5.4A176.8,176.8,0,0,0,111.1,57M59.5,43c-1.9-.8-9.3-.5-16.4-.5m16.4.5c-1.2-.5-3.7-3.1-4.5-9.7M1,55.2l4-.7m111.5.2c.6-1.7-.1-3.5-3-5-6.6-3.4-10.7-3.4-15.9-6.7s-7-5.3-6.2-9.7c.3-1.6,1.7-2.3,3.6-2.2,4.5.1,12.2,4.1,16.7,7.8M43.1,42.5a14.3,14.3,0,0,1-4-5.8m4,5.8a172.7,172.7,0,0,1-26.6,9.4m95.2-13,.8.6a14.4,14.4,0,0,1,2.7,4.2m-3.5-4.8a3.9,3.9,0,0,0,3.3-.2,11.1,11.1,0,0,1,2.5-1.5m-2.3,6.5a35.2,35.2,0,0,1,2.1,5.2c1.7,5.5,3.9,13.3,8.5,12.1s1.9-6.9.9-12.1-1.9-9.4-4-12.6a15.8,15.8,0,0,1,3.1,1.3m-10.6,6.1a3.6,3.6,0,0,0,2.8-.5,18.8,18.8,0,0,0,2.5-2m5.3-3.6,1.7-2.9c-6.8-2.7-22.4-8.9-29.9-12.5C94.3,20.6,88,19.7,81,19.3m44.8,18.3a41.8,41.8,0,0,1,5.7,3.3m0,0,2-3.7a68.6,68.6,0,0,1,9,5.8c2.8,2.2,3.5,3.5,3.5,3.9m-14.5-6c5.8,3.6,11.3,7.7,14.5,6M39.5,14.4H56m-16.5,0c-.4.3-1.1,1.6-1.5,4.8m1.5-4.8L9,14.2m47,.2c6,0,10.5-.1,12.2-.3,10-.8,21.1.6,28.2,1.7,8.9,1.3,26.1,10.4,34.1,13.9s18.8,13.1,16.7,16.1a6,6,0,0,1-1.2,1.1M56,14.4a13.8,13.8,0,0,0-1.4,4.8m-.6,7a33.1,33.1,0,0,1,.6-7M5,54.5a8.4,8.4,0,0,1-.7-3.3,6.3,6.3,0,0,1,1.1-3.5M5,54.5l1.7-.3m2.3-9a6.1,6.1,0,0,0-2,.9m2-.9,1.5,8.1M9,45.2l2-.7m28.1-7.8a27.6,27.6,0,0,1-1.6-9.5,52.6,52.6,0,0,1,.5-8m1.1,17.5c-5.7,1.5-16.6,4.5-24.1,6.7M5.4,47.7l1.3,6.5M5.4,47.7A4.9,4.9,0,0,1,7,46.1m-.3,8.1,1.8-.4M7,46.1l1.5,7.7m0,0,2-.5m0,0,2-.4M11,44.5l1.5,8.4M11,44.5l2-.5m-.5,8.9,2-.5M13,44l1.5,8.4M13,44l2-.6m-.5,9,1-.3,1-.2M15,43.4l1.5,8.5M97,48.7c.2-1,2-1.8,5,.2M54.6,19.2c5.1-.3,13.1-.4,20.9-.2M38,19.2H16a6.8,6.8,0,0,1-4-2.5c-1.6-2-2.7-2.5-3-2.5" transform="translate(-0.9 -1.4)" fill="none" stroke="#44f1a6" stroke-linejoin="round"/><path d="M104.6,51.7a4.4,4.4,0,0,1-2.8,3.2,7.9,7.9,0,0,1-4.5-.3A6,6,0,0,1,94,52.4a5.1,5.1,0,0,1-.2-3.7c.7-2,1.6-3.1,2.7-3.6a5.8,5.8,0,0,1,4.1.1,6.7,6.7,0,0,1,3.7,2.2C105,48.4,105.2,49.7,104.6,51.7Z" transform="translate(-0.9 -1.4)" fill="#1d3f30" stroke="#44f1a6"/><path d="M124.2,41.7a2.7,2.7,0,0,1-1.6.5,3,3,0,0,1-1.5-.5,10.9,10.9,0,0,1-3-3.3,6.9,6.9,0,0,1-1.4-3.7,2.5,2.5,0,0,1,1.2-2.2,3,3,0,0,1,3.1-.4,8.8,8.8,0,0,1,2.9,2.9,9.4,9.4,0,0,1,1.7,4,3.4,3.4,0,0,1-.2,1.5A4.5,4.5,0,0,1,124.2,41.7Z" transform="translate(-0.9 -1.4)" fill="#276c4e" stroke="#44f1a6"/><path d="M136.6,35.8a3.4,3.4,0,0,1-1.2,1.2,2.7,2.7,0,0,1-1.6.3,10.7,10.7,0,0,1-4.2-1.5,9,9,0,0,1-3-2.6,2.7,2.7,0,0,1,.1-2.6l.4-.6a2.9,2.9,0,0,1,2.5-1.2,9.3,9.3,0,0,1,3.6,1.3,10.6,10.6,0,0,1,3.3,2.7,3,3,0,0,1,.5,1.4A3.2,3.2,0,0,1,136.6,35.8Z" transform="translate(-0.9 -1.4)" fill="#276c4e" stroke="#44f1a6"/><path d="M136.6,29.8a1.1,1.1,0,0,1-.4.5h-.6a4.8,4.8,0,0,1-2-.7,3.1,3.1,0,0,1-1.3-1.2.7.7,0,0,1,0-.9,1.4,1.4,0,0,1,1-.8,3.8,3.8,0,0,1,1.8.6,3.9,3.9,0,0,1,1.5,1.2,1.4,1.4,0,0,1,.2.6A.7.7,0,0,1,136.6,29.8Z" transform="translate(-0.9 -1.4)" fill="#276c4e" stroke="#44f1a6"/><path d="M132.2,23.3a1.6,1.6,0,0,1-.3.6l-.6.3a7.2,7.2,0,0,1-2-.1,3.4,3.4,0,0,1-1.6-.8.8.8,0,0,1-.3-.9,1.1,1.1,0,0,1,.8-1,3.8,3.8,0,0,1,1.8.1,3.4,3.4,0,0,1,1.8.7,1,1,0,0,1,.4.5Z" transform="translate(-0.9 -1.4)" fill="#276c4e" stroke="#44f1a6"/><path d="M134,67.7c44.5-18,92.5-78,120.5-63.5,15.5,8,11,23.7,7.4,39.5M354,54.2c-31.5.5-67,42.5-88,23.5-6.8-6.2-7.5-14.6-6.2-23.5m-151.3,24S94,86.7,68,87.2a29.5,29.5,0,0,1-17-5.1M32,55.2a66.1,66.1,0,0,0,6.4,13.5M500,54.2c14,0,31.1,4.8,48.5,10.9M722,37.2c-29.6,0-64.3-9.5-87-11.2M748,37.2c18.5,0,40.5-12.5,63-12.5a27.7,27.7,0,0,1,8.5,1.2M837,47.7s-1.8-11.8-11-18.5M40.5,71.7A44,44,0,0,0,48,79.8M556.5,67.9c34,12.3,67.7,26.7,81.5,15.8,22-17.5-37.5-42-24.5-54,2.9-2.7,7.7-3.8,14-3.9" transform="translate(-0.9 -1.4)" fill="none" stroke="#44f1a6"/><path d="M746.5,27.9a22.4,22.4,0,0,1-.4,13.4c-1.5,3.8-4.1,6.5-7.4,7.4s-7-.2-10.2-2.7a21.8,21.8,0,0,1-7-11.4,22.4,22.4,0,0,1,.4-13.4c1.4-3.7,4-6.5,7.4-7.4s7,.2,10.1,2.7A22.1,22.1,0,0,1,746.5,27.9Z" transform="translate(-0.9 -1.4)" fill="#1d3f30" stroke="#44f1a6"/><path d="M747.5,27.2a21.4,21.4,0,0,1-.4,13.1c-1.4,3.7-3.9,6.3-7.1,7.2s-6.8-.2-9.9-2.7a21.1,21.1,0,0,1-6.8-11.1,21.8,21.8,0,0,1,.3-13.2c1.4-3.6,3.9-6.3,7.2-7.2s6.8.2,9.8,2.7A21.5,21.5,0,0,1,747.5,27.2Z" transform="translate(-0.9 -1.4)" fill="#1d3f30" stroke="#44f1a6"/><path d="M745.2,28a17.6,17.6,0,0,1-.3,10.5c-1.1,3-3.1,5.1-5.8,5.8a8.7,8.7,0,0,1-7.8-2.1,17.9,17.9,0,0,1-5.6-9,18,18,0,0,1,.3-10.6,8.8,8.8,0,0,1,5.8-5.8,8.5,8.5,0,0,1,7.8,2.2A17.4,17.4,0,0,1,745.2,28Z" transform="translate(-0.9 -1.4)" fill="#182922" stroke="#44f1a6"/><path d="M732.8,30.9l.8-9.2h0l5.2,7.6-2.3,3.3h0Zm.4,1.7,3.8,1.7,2.3-3.3-1.4,6.7Z" transform="translate(-0.9 -1.4)" fill="#44f1a6" fill-rule="evenodd"/><path d="M849.5,89.2h-3m-87.4-1.6c7.1,1,18.2,2.5,28.2,1.6,1.7-.2,6.2-.2,12.2-.3m-40.4-1.3c-8.9-1.4-26.1-10.5-34.1-14a28.6,28.6,0,0,1-4.2-2.2m38.3,16.2c-3-.3-8.1-.4-13.1-.9s-15.5-6-18-8a88.4,88.4,0,0,1-7.2-7.3M796,60.3c-4-1.6-8.6-1.2-11.5-1.5a29.9,29.9,0,0,1-8.7-2.4M796,60.3c1.9.8,9.3.5,16.4.5M796,60.3c1.2.5,3.7,3.1,4.5,9.7m54-21.8-4,.6m-38.1,12a14.1,14.1,0,0,1,4,5.9m-4-5.9A172.7,172.7,0,0,1,839,51.4M737,60.2l6,3.6,5.5,3.2c5.5,3,10.1,5.2,12,5.2s3.3-.6,3.6-2.2c.8-4.4-.5-6.1-6.2-9.7s-1.9-.6-8.9-5.6c-2.7-2-3.6-3.4-3-5a3.7,3.7,0,0,1,3-2.4h2.4c12.1,1.5,12.1,2.4,19.1,6.4,2.1,1.2,3.8,2,5.3,2.7M737,60.2l-4.7-2.7m4.7,2.7-3,3.6m-4.3,1.9a15.8,15.8,0,0,0,3.1,1.3c-2.1-3.2-6.8-5.8-11.3-9.5s-7.5-8.8-2.5-8.8,5.5,4,11.5,7.7l1.8,1.1m-2.6,8.2-3.2,5c6.8,2.6,9.5,7,32,12.5,3.5.8,9,.4,16,.8M729.7,65.7a54.5,54.5,0,0,1-5.7-3.2m0,0-2.5,5.7c-1.8-1-5.7-5.6-8.5-7.9s-3.5-3.5-3.5-3.9M724,62.5c-5.8-3.7-11.3-7.8-14.5-6.1M816,88.9H799.5m16.5,0c.4-.3,1.1-1.6,1.5-4.7M816,88.9c14.8,0,25.5.2,30.5.3m-47-.3a13.8,13.8,0,0,0,1.4-4.7m.6-7a34.4,34.4,0,0,1-.6,7m49.6-35.4a8.6,8.6,0,0,1,.7,3.4,6.8,6.8,0,0,1-1.1,3.5m.4-6.9-1.7.4m-2.3,9,2-1m-2,1L845,50m1.5,8.2-2,.6m-28.1,7.9a26.7,26.7,0,0,1,1.6,9.5,54.5,54.5,0,0,1-.5,8m-1.1-17.5,24.1-6.8m9.6-4.2-1.3-6.5m1.3,6.5a5.8,5.8,0,0,1-1.6,1.5m.3-8-1.8.3m1.5,7.7L847,49.5m0,0-2,.5m0,0-2,.4m1.5,8.4L843,50.4m1.5,8.4-2,.5m.5-8.9-2,.5m1.5,8.4L841,50.9m1.5,8.4-2,.6m.5-9-1,.3-1,.2m1.5,8.5L839,51.4M800.9,84.2c-5.1.2-13.1.3-20.9.1M709.5,56.4a6,6,0,0,0-1.2,1.1c-1.4,2,3.1,7,8.5,11.2l4,2.7m96.7,12.8h22a5.8,5.8,0,0,1,4,2.5,7.8,7.8,0,0,0,3,2.5M732.3,57.5l-1.8,3.7m45.3-4.8a28.6,28.6,0,0,1,9.7,8.8" transform="translate(-0.9 -1.4)" fill="none" stroke="#44f1a6" stroke-linejoin="round"/><path d="M754.2,52a2.3,2.3,0,0,1,1.1-1.1,2.8,2.8,0,0,1,1.3-.3,10.6,10.6,0,0,1,3.6,1.3,6.6,6.6,0,0,1,2.4,2.3,2.4,2.4,0,0,1-.2,2.3,2.8,2.8,0,0,1-2.2,1.6,6.4,6.4,0,0,1-3.3-1.1,7.5,7.5,0,0,1-2.8-2.3,3.1,3.1,0,0,1-.3-1.3A2.7,2.7,0,0,1,754.2,52Z" transform="translate(-0.9 -1.4)" fill="#1d3f30" stroke="#44f1a6"/><path d="M727.3,61.6a1.2,1.2,0,0,1,1-.6,2,2,0,0,1,1.3.1,9.7,9.7,0,0,1,3.4,2.2,7,7,0,0,1,2.2,2.7,1.8,1.8,0,0,1-.2,1.9,2.6,2.6,0,0,1-1,.7,1.7,1.7,0,0,1-1.2.1,8.6,8.6,0,0,1-3.2-1.9,10.4,10.4,0,0,1-2.5-3,2.7,2.7,0,0,1-.3-1.2A1.6,1.6,0,0,1,727.3,61.6Z" transform="translate(-0.9 -1.4)" fill="#276c4e" stroke="#44f1a6"/><path d="M718.3,68.6a1.2,1.2,0,0,1,.8-.6h1.4a13.8,13.8,0,0,1,4.1,1.8,10.1,10.1,0,0,1,3.2,2.4,3.1,3.1,0,0,1,.5,1,1,1,0,0,1-.2.7.5.5,0,0,1-.2.4,2,2,0,0,1-2,.4,12.6,12.6,0,0,1-3.6-1.5,15.9,15.9,0,0,1-3.5-2.5,1.7,1.7,0,0,1-.6-1.1A1.1,1.1,0,0,1,718.3,68.6Z" transform="translate(-0.9 -1.4)" fill="#276c4e" stroke="#44f1a6"/><rect x="353.6" y="10.7" width="145" height="77" rx="9.5" fill="none" stroke="#44f1a6"/><path d="M354.5,33.7a9.5,9.5,0,0,1,9.5-9.5H490a9.5,9.5,0,0,1,9.5,9.5v46a9.6,9.6,0,0,1-9.5,9.5H364a9.6,9.6,0,0,1-9.5-9.5Z" transform="translate(-0.9 -1.4)" fill="none" stroke="#44f1a6"/><path d="M359.5,36.7a7.5,7.5,0,0,1,7.5-7.5H487a7.5,7.5,0,0,1,7.5,7.5v40a7.6,7.6,0,0,1-7.5,7.5H367a7.6,7.6,0,0,1-7.5-7.5Z" transform="translate(-0.9 -1.4)" fill="#182922" stroke="#44f1a6"/><path d="M366,17.2h12a1.5,1.5,0,0,1,1.5,1.5h0a1.5,1.5,0,0,1-1.5,1.5H366a1.5,1.5,0,0,1-1.5-1.5h0A1.5,1.5,0,0,1,366,17.2Z" transform="translate(-0.9 -1.4)" fill="none" stroke="#44f1a6"/><path d="M386,17.2h12a1.5,1.5,0,0,1,1.5,1.5h0a1.5,1.5,0,0,1-1.5,1.5H386a1.5,1.5,0,0,1-1.5-1.5h0A1.5,1.5,0,0,1,386,17.2Z" transform="translate(-0.9 -1.4)" fill="none" stroke="#44f1a6"/><path d="M486,17.2h2a1.5,1.5,0,0,1,1.5,1.5h0a1.5,1.5,0,0,1-1.5,1.5h-2a1.5,1.5,0,0,1-1.5-1.5h0A1.5,1.5,0,0,1,486,17.2Z" transform="translate(-0.9 -1.4)" fill="none" stroke="#44f1a6"/><path d="M378.5,54.4V42.9l1.5-1.5,1.5,1.5V54.4L380,55.9Z" transform="translate(-0.9 -1.4)" fill="#1d3f30" stroke="#44f1a6"/><path d="M378.5,70.4V58.9l1.5-1.5,1.5,1.5V70.4L380,71.9Z" transform="translate(-0.9 -1.4)" fill="#1d3f30" stroke="#44f1a6"/><path d="M406.5,54.4V42.9l1.5-1.5,1.5,1.5V54.4L408,55.9Z" transform="translate(-0.9 -1.4)" fill="#1d3f30" stroke="#44f1a6"/><path d="M390.5,54.4V42.9l1.5-1.5,1.5,1.5V54.4L392,55.9Z" transform="translate(-0.9 -1.4)" fill="#1d3f30" stroke="#44f1a6"/><path d="M390.5,70.4V58.9l1.5-1.5,1.5,1.5V70.4L392,71.9Z" transform="translate(-0.9 -1.4)" fill="#1d3f30" stroke="#44f1a6"/><path d="M394.2,39.2h11.6l1.5,1.5-1.5,1.5H394.2l-1.5-1.5Z" transform="translate(-0.9 -1.4)" fill="#1d3f30" stroke="#44f1a6"/><path d="M394.2,71.2h11.6l1.5,1.5-1.5,1.5H394.2l-1.5-1.5Z" transform="translate(-0.9 -1.4)" fill="#1d3f30" stroke="#44f1a6"/><path d="M406.5,70.4V58.9l1.5-1.5,1.5,1.5V70.4L408,71.9Z" transform="translate(-0.9 -1.4)" fill="#1d3f30" stroke="#44f1a6"/><path d="M444.5,54.4V42.9l1.5-1.5,1.5,1.5V54.4L446,55.9Z" transform="translate(-0.9 -1.4)" fill="#1d3f30" stroke="#44f1a6"/><path d="M432.2,39.2h11.6l1.5,1.5-1.5,1.5H432.2l-1.5-1.5Z" transform="translate(-0.9 -1.4)" fill="#1d3f30" stroke="#44f1a6"/><path d="M432.2,55.2h11.6l1.5,1.5-1.5,1.5H432.2l-1.5-1.5Z" transform="translate(-0.9 -1.4)" fill="#1d3f30" stroke="#44f1a6"/><path d="M432.2,71.2h11.6l1.5,1.5-1.5,1.5H432.2l-1.5-1.5Z" transform="translate(-0.9 -1.4)" fill="#1d3f30" stroke="#44f1a6"/><path d="M444.5,70.4V58.9l1.5-1.5,1.5,1.5V70.4L446,71.9Z" transform="translate(-0.9 -1.4)" fill="#1d3f30" stroke="#44f1a6"/><path d="M472.5,54.4V42.9l1.5-1.5,1.5,1.5V54.4L474,55.9Z" transform="translate(-0.9 -1.4)" fill="#1d3f30" stroke="#44f1a6"/><path d="M456.5,54.4V42.9l1.5-1.5,1.5,1.5V54.4L458,55.9Z" transform="translate(-0.9 -1.4)" fill="#1d3f30" stroke="#44f1a6"/><path d="M456.5,70.4V58.9l1.5-1.5,1.5,1.5V70.4L458,71.9Z" transform="translate(-0.9 -1.4)" fill="#1d3f30" stroke="#44f1a6"/><path d="M460.2,39.2h11.6l1.5,1.5-1.5,1.5H460.2l-1.5-1.5Z" transform="translate(-0.9 -1.4)" fill="#1d3f30" stroke="#44f1a6"/><path d="M460.2,55.2h11.6l1.5,1.5-1.5,1.5H460.2l-1.5-1.5Z" transform="translate(-0.9 -1.4)" fill="#1d3f30" stroke="#44f1a6"/><path d="M460.2,71.2h11.6l1.5,1.5-1.5,1.5H460.2l-1.5-1.5Z" transform="translate(-0.9 -1.4)" fill="#1d3f30" stroke="#44f1a6"/><path d="M472.5,70.4V58.9l1.5-1.5,1.5,1.5V70.4L474,71.9Z" transform="translate(-0.9 -1.4)" fill="#1d3f30" stroke="#44f1a6"/><circle cx="420.1" cy="51.2" r="1.5" fill="#1d3f30" stroke="#44f1a6"/><circle cx="420.1" cy="59.2" r="1.5" fill="#1d3f30" stroke="#44f1a6"/></svg>